<svg width="130" height="130" viewBox="0 0 130 130" fill="none" xmlns="http://www.w3.org/2000/svg">
<rect width="130" height="130" fill="white"/>
<g clip-path="url(#clip0_1719_1762)">
<path d="M16.3952 53H9.16768V53.6143H11.4733V65.612C11.4733 69.2258 10.4686 70.2304 8.24256 70.2304C8.02437 70.2501 7.80452 70.2218 7.59839 70.1476C7.39227 70.0735 7.20484 69.9551 7.04925 69.8009C6.89365 69.6467 6.77364 69.4603 6.69762 69.2549C6.6216 69.0494 6.5914 68.8298 6.60914 68.6114C6.60914 67.3033 6.53686 66.501 5.34432 66.501C4.15178 66.501 4 67.7152 4 68.0838C4 69.7317 4.72276 70.9748 8.01851 70.9748C11.9286 70.9748 14.0173 69.6594 14.0173 65.2723V53.6143H16.3952V53Z" fill="black"/>
<path d="M17.3707 68.2283C17.1843 68.222 16.9986 68.2547 16.8256 68.3244C16.6526 68.3941 16.4961 68.4992 16.3661 68.6331C16.2304 68.7623 16.123 68.9183 16.0509 69.0913C15.9787 69.2642 15.9433 69.4503 15.9469 69.6377C15.9412 69.8232 15.9757 70.0077 16.0481 70.1787C16.1204 70.3496 16.2289 70.5028 16.3661 70.6279C16.636 70.8905 16.9977 71.0375 17.3743 71.0375C17.7509 71.0375 18.1127 70.8905 18.3826 70.6279C18.5149 70.4974 18.6181 70.3405 18.6853 70.1673C18.7526 69.9942 18.7824 69.8087 18.7729 69.6232C18.7778 69.432 18.7438 69.2419 18.6729 69.0642C18.6021 68.8866 18.4958 68.7253 18.3605 68.59C18.2253 68.4548 18.064 68.3485 17.8863 68.2776C17.7087 68.2067 17.5185 68.1728 17.3274 68.1777" fill="black"/>
<path d="M33.4237 68.2284C33.2314 68.2191 33.0393 68.2501 32.8597 68.3195C32.6801 68.3889 32.517 68.495 32.3809 68.6311C32.2448 68.7673 32.1386 68.9304 32.0693 69.1099C31.9999 69.2895 31.9689 69.4816 31.9782 69.6739C31.9716 69.8582 32.0043 70.0418 32.0741 70.2125C32.1438 70.3832 32.2491 70.5372 32.3829 70.6641C32.6533 70.9285 33.0166 71.0764 33.3948 71.0761C33.7755 71.0783 34.1417 70.9302 34.4138 70.6641C34.551 70.5391 34.6595 70.3858 34.7319 70.2149C34.8042 70.044 34.8387 69.8594 34.833 69.6739C34.8371 69.4865 34.8019 69.3003 34.7297 69.1273C34.6575 68.9543 34.5499 68.7983 34.4138 68.6693C34.2804 68.5361 34.1212 68.4316 33.946 68.362C33.7708 68.2924 33.5832 68.2593 33.3948 68.2646" fill="black"/>
<path d="M28.3858 53H21.3028V53.6143H23.3843V67.296C23.4332 67.8542 23.3718 68.4166 23.2036 68.9511C23.1309 69.1361 23.0209 69.3041 22.8804 69.4446C22.7399 69.5851 22.5719 69.6952 22.3869 69.7679C21.9204 69.9206 21.4322 69.9962 20.9414 69.9919V70.5557H28.5592V69.9991C28.0699 69.9983 27.5832 69.9277 27.1137 69.7895C26.9155 69.728 26.7328 69.6245 26.5782 69.4861C26.4236 69.3476 26.3005 69.1775 26.2175 68.9873C26.0657 68.6337 25.9917 68.2517 26.0007 67.867V63.1691H27.8871C33.3583 63.1691 34.8978 61.0009 34.8978 58.0593C34.8978 55.1177 33.9582 53 28.393 53H28.3858ZM27.4462 62.5042H26.0007V53.6938H27.3089C31.537 53.6938 32.4549 55.4284 32.4549 58.24C32.4549 61.0515 30.7925 62.5186 27.4462 62.5186" fill="black"/>
<path d="M57.4402 68.9511C57.3351 68.5601 57.2865 68.1561 57.2957 67.7513V53.6143C57.2957 53.6143 59.1531 53.6143 59.1315 53.6143C59.1206 53.4265 59.1206 53.2383 59.1315 53.0505H54.6359L49.2731 66.4142C49.263 66.4383 49.2458 66.4587 49.2239 66.4729C49.202 66.4871 49.1764 66.4943 49.1503 66.4937C49.1231 66.4948 49.0963 66.4878 49.0732 66.4737C49.05 66.4595 49.0316 66.4388 49.0202 66.4142C49.0202 66.4142 43.3466 53.2023 43.3466 53.0505H38.3596V53.6215H40.5278V67.2093L40.4556 68.4307C40.4264 68.7346 40.3248 69.0271 40.1592 69.2835C39.9608 69.5543 39.6789 69.7523 39.357 69.8473C39.0255 69.9421 38.6826 69.9907 38.3379 69.9918V70.5556H43.2815V69.9991C42.9936 69.9981 42.7078 69.9493 42.4359 69.8545C42.109 69.7658 41.8213 69.5698 41.6192 69.298C41.4489 69.0379 41.3447 68.7402 41.3156 68.4307L41.265 67.1948V55.4573H41.5541C41.5541 55.4573 47.9505 70.3894 48.0155 70.5556H48.5504L54.607 55.6235H54.7588V67.7224C54.772 68.1373 54.7208 68.5518 54.607 68.9511C54.5484 69.1301 54.4542 69.2954 54.33 69.437C54.2058 69.5786 54.0541 69.6936 53.8843 69.775C53.4813 69.9213 53.0554 69.9947 52.6267 69.9918V70.5556H59.529V69.9918C59.0972 69.9887 58.6692 69.9104 58.2642 69.7606C58.0772 69.6919 57.907 69.5842 57.765 69.4446C57.6229 69.305 57.5122 69.1368 57.4402 68.9511" fill="black"/>
<path d="M66.7352 57.698C63.0491 57.698 60.7363 60.1409 60.7363 64.4051C60.7363 70.6569 65.6005 71.0689 66.6484 71.0689C68.73 71.0689 72.669 69.7752 72.669 64.2895C72.669 60.018 70.1466 57.698 66.7352 57.698ZM66.6846 70.2956C63.9164 70.2956 63.49 68.9079 63.49 64.5136C63.49 61.0805 63.6996 58.5075 66.6846 58.5075C69.9081 58.5075 69.9225 61.1744 69.9225 64.2895C69.9225 68.7778 69.1564 70.3245 66.6846 70.3245" fill="black"/>
<path d="M82.3099 57.8857C80.1416 57.8857 79.4189 59.1867 78.8118 60.5166C78.754 60.5126 78.6961 60.5126 78.6383 60.5166C78.6383 60.5166 78.3203 58.5868 78.2119 58.0158H73.9404V58.6735H76.2532C76.2532 58.6735 76.2532 60.6322 76.2532 61.3405V67.3393C76.2946 67.9598 76.1983 68.5817 75.9714 69.1607C75.7329 69.5871 75.2052 69.8039 74.3307 69.8039H73.9549V70.57H81.1029V69.7895H80.7198C79.7803 69.7895 79.3755 69.5871 79.1226 69.1824C78.8568 68.6013 78.7448 67.9617 78.7973 67.3249V62.8221C78.7973 61.3044 79.9393 59.577 81.3053 59.577C82.6713 59.577 82.7074 61.7452 84.3264 60.8996C85.2081 60.4154 85.0491 57.8857 82.3243 57.8857" fill="black"/>
<path d="M110.786 69.2693C110.02 69.2693 109.775 68.8428 109.724 68.1345L109.673 66.53V61.2756C109.725 60.8118 109.675 60.3423 109.528 59.8995C109.38 59.4566 109.139 59.0508 108.821 58.7099C108.163 58.0377 106.891 57.698 105.048 57.698C103.205 57.698 101.962 58.0232 101.131 58.6665C100.782 58.875 100.495 59.1706 100.296 59.5243C100.097 59.8779 99.9934 60.2772 99.9958 60.683C99.9814 60.8366 100.003 60.9915 100.058 61.1357C100.113 61.2798 100.201 61.4093 100.314 61.5141C100.53 61.7007 100.809 61.7987 101.094 61.7888C101.817 61.7888 102.2 61.4274 102.345 60.495C102.382 59.9595 102.596 59.4513 102.952 59.0495C103.181 58.8411 103.451 58.6822 103.744 58.5828C104.038 58.4833 104.349 58.4454 104.658 58.4713C105.007 58.4327 105.36 58.4782 105.688 58.6039C106.017 58.7296 106.31 58.932 106.544 59.1941C106.898 59.7389 107.072 60.3809 107.043 61.0299V63.1692C104.752 63.3788 99.3453 63.8125 99.5838 67.9322C99.655 68.7666 100.04 69.5431 100.661 70.105C101.282 70.667 102.093 70.9727 102.93 70.9605C103.738 70.9326 104.53 70.7318 105.253 70.3714C105.976 70.0111 106.614 69.4996 107.122 68.8717C107.228 69.4315 107.531 69.9346 107.977 70.2889C108.423 70.6433 108.981 70.8252 109.551 70.8015C111.213 70.8015 112.21 69.9848 112.326 67.9466H111.9C111.784 68.8284 111.235 69.3054 110.786 69.3054V69.2693ZM107.043 67.9828C107.045 68.0009 107.043 68.0195 107.035 68.0362C107.027 68.053 107.015 68.067 106.999 68.0767L106.941 68.1273C105.72 69.2404 104.773 69.6379 104.101 69.6379C103.82 69.6478 103.541 69.5972 103.281 69.4896C103.022 69.3821 102.789 69.2199 102.598 69.0143C102.406 68.8087 102.262 68.5643 102.173 68.2978C102.084 68.0312 102.054 67.7488 102.085 67.4696C102.085 65.1351 105.286 63.9643 107.043 63.9643V67.9828Z" fill="black"/>
<path d="M125.444 69.1824C125.116 68.6181 124.96 67.9697 124.996 67.3177L125.032 61.6296C125.065 60.9049 124.921 60.1832 124.613 59.5264C124.316 58.9839 123.863 58.5433 123.312 58.2616C122.726 57.9732 122.079 57.8294 121.426 57.8424C120.586 57.8184 119.757 58.035 119.036 58.4665C118.315 58.898 117.733 59.5265 117.357 60.278H117.126L116.685 57.9941H112.796V58.6518C113.519 58.6518 114.74 58.6952 114.74 58.6952V67.3104C114.758 67.797 114.706 68.2835 114.589 68.7559C114.543 68.9384 114.453 69.1068 114.327 69.2466C114.201 69.3864 114.043 69.4934 113.866 69.5582C113.519 69.6768 113.155 69.7379 112.789 69.7389V70.5267H118.969V69.7316C118.731 69.7417 118.495 69.6989 118.276 69.6064C118.057 69.5139 117.862 69.374 117.704 69.1968C117.415 68.6513 117.292 68.0333 117.35 67.4188V64.1303C117.35 62.7499 117.35 61.4055 117.819 60.5816C118.068 60.1446 118.431 59.7834 118.868 59.5364C119.306 59.2894 119.803 59.1661 120.306 59.1795C120.654 59.1291 121.01 59.1883 121.323 59.3489C121.636 59.5095 121.892 59.7634 122.055 60.0757C122.356 61.0214 122.497 62.0106 122.474 63.0028V67.1081C122.474 67.7947 122.553 68.3006 122.474 68.6258C122.449 68.8 122.387 68.9671 122.294 69.1164C122.201 69.2657 122.077 69.394 121.932 69.4931C121.629 69.6607 121.288 69.7501 120.942 69.7533V70.5556H126.897V69.7678C126.174 69.7172 125.654 69.5293 125.452 69.1824" fill="black"/>
<path d="M97.4661 57.1921C97.2672 57.2781 97.0951 57.4161 96.9679 57.5916C96.8407 57.7671 96.7631 57.9736 96.7433 58.1895C96.6494 58.6954 96.4542 58.9917 96.194 59.0785C95.898 59.1481 95.5878 59.1254 95.305 59.0134C94.1795 58.0733 92.7354 57.6023 91.2721 57.698C87.7957 57.698 86.2634 60.177 86.2634 62.4393C86.2634 65.0845 87.2825 66.3638 89.5158 66.8408C89.6531 66.8408 89.6531 67.0215 89.5158 67.0432C87.6005 67.4335 85.9021 67.99 85.9021 69.8041C85.8896 70.2529 86.024 70.6934 86.2849 71.0587C86.5459 71.424 86.919 71.6941 87.3476 71.8278C88.5373 72.2364 89.7904 72.4298 91.048 72.3988C92.4213 72.3988 93.3898 72.4638 94.0185 72.5433C94.6013 72.5822 95.163 72.7769 95.6447 73.1071C95.8542 73.2733 96.0206 73.4875 96.13 73.7315C96.2395 73.9755 96.2887 74.2422 96.2735 74.5092C96.2633 74.9372 96.1314 75.3534 95.8934 75.7092C95.6553 76.065 95.3209 76.3457 94.9292 76.5185C93.8787 77.0426 92.7124 77.2912 91.5395 77.2412C90.4578 77.3057 89.3806 77.0546 88.4389 76.5185C88.1548 76.3233 87.9387 76.0443 87.8207 75.7203C87.7028 75.3964 87.689 75.0437 87.7812 74.7116C87.8283 74.574 87.8452 74.4279 87.8307 74.2833C87.8162 74.1386 87.7708 73.9987 87.6974 73.8732C87.624 73.7477 87.5244 73.6395 87.4054 73.5559C87.2864 73.4723 87.1508 73.4154 87.0079 73.3889C86.8033 73.3633 86.5956 73.3951 86.408 73.4806C86.2204 73.5661 86.0603 73.702 85.9454 73.8732C85.7384 74.2167 85.6401 74.6148 85.6635 75.0151C85.6773 75.5935 85.8861 76.1503 86.2561 76.595C86.6261 77.0398 87.1355 77.3465 87.7017 77.4653C88.8216 77.827 89.9943 77.998 91.1709 77.9712C92.5171 78.0326 93.8595 77.7854 95.0955 77.2484C95.915 76.885 96.6019 76.2765 97.0613 75.5066C97.4153 74.8826 97.6043 74.1786 97.6106 73.4612C97.6446 72.6963 97.4427 71.9394 97.0324 71.293C95.7893 69.5873 94.0185 69.8041 90.0506 69.6162C88.1426 69.6162 87.774 69.2693 87.774 68.6838C87.774 67.8238 88.4967 67.4841 91.2432 67.0576C93.9896 66.6312 96.5048 65.6121 96.5048 62.3164C96.5109 61.5049 96.3434 60.7016 96.0133 59.9602C96.5236 60.1056 97.0643 60.1056 97.5745 59.9602C97.8065 59.9039 98.0246 59.8012 98.2159 59.6583C98.4072 59.5155 98.5676 59.3355 98.6875 59.129C98.7873 58.9649 98.8511 58.7815 98.8748 58.5909C98.8984 58.4003 98.8814 58.2068 98.8248 58.0232C98.5936 57.3005 98.1527 57.0114 97.4733 57.221L97.4661 57.1921ZM91.3299 66.3638C89.7037 66.3638 88.7714 65.7784 88.7714 62.4682C88.7714 60.1337 89.5881 58.3991 91.3299 58.3991C93.3536 58.3991 93.9463 59.9747 93.9463 62.4176C93.9463 65.9085 92.8477 66.3638 91.3299 66.3638Z" fill="black"/>
</g>
<defs>
<clipPath id="clip0_1719_1762">
<rect width="122.904" height="25" fill="white" transform="translate(4 53)"/>
</clipPath>
</defs>
</svg>
