<svg width="28" height="28" viewBox="0 0 28 28" fill="none" xmlns="http://www.w3.org/2000/svg">
<rect width="28" height="28" rx="14" fill="#F3F3F3"/>
<g clip-path="url(#clip0_1710_927)">
<path d="M10.4541 19.2507H7.90342V11.0722H10.4541V19.2507ZM9.17738 9.95656C8.36176 9.95656 7.7002 9.28391 7.7002 8.4718C7.7002 8.08171 7.85583 7.7076 8.13285 7.43177C8.40988 7.15594 8.78561 7.00098 9.17738 7.00098C9.56916 7.00098 9.94489 7.15594 10.2219 7.43177C10.4989 7.7076 10.6546 8.08171 10.6546 8.4718C10.6546 9.28391 9.99273 9.95656 9.17738 9.95656ZM20.0005 19.2507H17.4553V15.2695C17.4553 14.3206 17.4361 13.1038 16.1291 13.1038C14.803 13.1038 14.5998 14.1347 14.5998 15.2011V19.2507H12.0518V11.0722H14.4982V12.1878H14.5339C14.8744 11.5452 15.7062 10.8671 16.9472 10.8671C19.5287 10.8671 20.0032 12.5597 20.0032 14.7581V19.2507H20.0005Z" fill="black"/>
</g>
<defs>
<clipPath id="clip0_1710_927">
<rect width="12.303" height="14" fill="white" transform="translate(7.7002 7)"/>
</clipPath>
</defs>
</svg>
