<svg width="18" height="24" viewBox="0 0 18 24" fill="none" xmlns="http://www.w3.org/2000/svg">
<path fill-rule="evenodd" clip-rule="evenodd" d="M13.2385 8.7273C13.2385 11.1364 11.2378 13.0909 8.76982 13.0909C6.30149 13.0909 4.30114 11.1364 4.30114 8.7273C4.30114 6.31753 6.30184 4.36372 8.76982 4.36372C11.2383 4.36355 13.2385 6.31736 13.2385 8.7273ZM17.8751 8.72732C17.8751 3.90726 13.8739 0 8.93754 0C4.00158 0 0 3.90726 0 8.72732C0 10.8466 0.774351 12.7897 2.06113 14.3011L8.94527 24L15.9301 14.1596C16.1809 13.8531 16.4107 13.53 16.618 13.1903L16.6886 13.0914H16.677C17.4377 11.8069 17.8751 10.3177 17.8751 8.72732Z" fill="white"/>
</svg>
