<svg width="25" height="25" viewBox="0 0 25 25" fill="none" xmlns="http://www.w3.org/2000/svg">
<path d="M23.9512 12.5C23.9512 18.8531 18.8116 24 12.4756 24C6.13965 24 1 18.8531 1 12.5C1 6.14688 6.13965 1 12.4756 1C18.8116 1 23.9512 6.14688 23.9512 12.5Z" stroke="black" stroke-width="2"/>
<path fill-rule="evenodd" clip-rule="evenodd" d="M17.3106 9.57148C17.8153 9.25239 18.2025 8.74642 18.3842 8.14368C17.9117 8.43988 17.3896 8.65409 16.8325 8.77005C16.388 8.26778 15.7526 7.95459 15.0494 7.95459C13.7004 7.95459 12.6072 9.11057 12.6072 10.5362C12.6072 10.7385 12.6274 10.9358 12.6694 11.1241C10.6395 11.0163 8.83966 9.98956 7.63392 8.42658C7.42353 8.8092 7.3033 9.25239 7.3033 9.72512C7.3033 10.6204 7.73458 11.4107 8.39022 11.8746C7.9897 11.8613 7.61295 11.7438 7.28303 11.5518V11.5836C7.28303 12.8348 8.12461 13.8785 9.24368 14.1149C9.03818 14.1755 8.82289 14.2057 8.59922 14.2057C8.44194 14.2057 8.28817 14.1902 8.13999 14.1599C8.45033 15.1852 9.35272 15.9327 10.4222 15.9526C9.58548 16.6455 8.53211 17.0576 7.38788 17.0576C7.19077 17.0576 6.99575 17.0466 6.80493 17.0222C7.88626 17.7542 9.17028 18.1819 10.5501 18.1819C15.0445 18.1819 17.5007 14.2478 17.5007 10.836C17.5007 10.7238 17.4993 10.6122 17.4944 10.5022C17.9718 10.138 18.387 9.68302 18.7135 9.16523C18.2752 9.37057 17.8041 9.50944 17.3106 9.57148Z" fill="black"/>
</svg>
