<svg width="127" height="25" viewBox="0 0 127 25" fill="none" xmlns="http://www.w3.org/2000/svg">
<path fill-rule="evenodd" clip-rule="evenodd" d="M4.9777 16.8668C4.9777 17.1893 5.03447 17.57 5.16221 18.0002C5.28818 18.4348 5.54365 18.8461 5.90558 19.233C6.2752 19.6243 6.79858 19.9545 7.49878 20.2237C8.18183 20.4929 9.09493 20.6256 10.2257 20.6256C10.8496 20.6256 11.4599 20.5801 12.0696 20.5002C12.6835 20.4125 13.2323 20.2609 13.7385 20.045C14.2276 19.8291 14.6273 19.5266 14.9361 19.1364C15.2489 18.7456 15.4027 18.24 15.4027 17.61C15.4027 17.1587 15.2992 16.7818 15.0833 16.4771C14.8497 16.1696 14.5493 15.9209 14.1489 15.7145C13.7385 15.5113 13.2642 15.3304 12.7136 15.1811C12.1595 15.0318 11.5604 14.8797 10.9105 14.7242L8.24866 14.1437C7.24507 13.9272 6.26041 13.6907 5.31656 13.4287C4.37389 13.1723 3.53767 12.7954 2.81263 12.3136C2.08582 11.8285 1.5033 11.1852 1.05089 10.3937C0.602623 9.61385 0.37553 8.57534 0.37553 7.30259C0.37553 6.87076 0.434078 6.38953 0.529291 5.87388C0.636923 5.35601 0.811973 4.8337 1.06745 4.3014C1.32175 3.77188 1.67362 3.2529 2.12071 2.74891C2.57549 2.24104 3.14972 1.79977 3.86707 1.414C4.58147 1.04156 5.42893 0.730173 6.42245 0.494829C7.4148 0.25671 8.57628 0.136818 9.91282 0.136818C11.7928 0.136818 13.3647 0.397694 14.6137 0.913897C15.8586 1.43398 16.8421 2.07563 17.5849 2.82995C18.3235 3.58594 18.8368 4.39909 19.1384 5.27775C19.4306 6.15085 19.582 6.94847 19.582 7.65894H14.6137C14.5629 7.40306 14.4854 7.07002 14.3843 6.66761C14.2826 6.27074 14.0578 5.88831 13.7119 5.51975C13.3647 5.14953 12.8597 4.8337 12.2151 4.5645C11.5569 4.2953 10.6597 4.15653 9.53137 4.15653C9.04821 4.15653 8.54612 4.20816 8.03162 4.3014C7.51001 4.39909 7.04992 4.56173 6.62648 4.77265C6.21429 4.98856 5.87247 5.27775 5.61876 5.63298C5.34258 5.99155 5.21603 6.42616 5.21603 6.94847C5.21603 7.40306 5.29586 7.77439 5.47091 8.06357C5.64123 8.35609 5.8701 8.58977 6.12794 8.7635C6.40057 8.93501 6.68148 9.06323 6.99432 9.15093C7.30244 9.2353 7.59162 9.31245 7.83882 9.3785L13.8857 10.7745C14.7326 10.9665 15.5535 11.203 16.3394 11.4844C17.1218 11.7675 17.812 12.1438 18.4081 12.6195C19.0125 13.0957 19.4897 13.6907 19.8369 14.404C20.2053 15.1122 20.3798 15.9909 20.3798 17.0277C20.3798 18.1995 20.1905 19.198 19.8126 20.0273C19.4259 20.8587 18.9403 21.5581 18.3235 22.1193C17.7138 22.6815 17.0426 23.13 16.2998 23.4636C15.5682 23.8044 14.8326 24.0536 14.1093 24.2274C13.3837 24.4005 12.7136 24.5104 12.0838 24.5682C11.464 24.6181 10.9791 24.6487 10.6006 24.6487C8.34505 24.6487 6.5224 24.38 5.13087 23.8399C3.7346 23.2949 2.65237 22.6377 1.89421 21.844C1.14078 21.0586 0.631009 20.2065 0.37553 19.3018C0.125965 18.3893 0 17.5783 0 16.8668H4.9777Z" fill="black"/>
<path fill-rule="evenodd" clip-rule="evenodd" d="M43.5167 15.8957C43.5167 17.4554 43.2748 18.7898 42.794 19.906C42.3203 21.025 41.6349 21.9464 40.7324 22.6663C39.84 23.3884 38.7507 23.9218 37.478 24.261C36.2065 24.5973 34.776 24.7722 33.1881 24.7722C32.6079 24.7722 31.971 24.7305 31.2803 24.6545C30.5913 24.5779 29.8935 24.4247 29.1862 24.2132C28.467 23.9912 27.7597 23.6948 27.082 23.334C26.3907 22.9777 25.7691 22.5053 25.2091 21.9103C24.5349 21.1854 24.0411 20.3478 23.7531 19.3981C23.4615 18.4451 23.2894 17.3738 23.248 16.1932V0H28.6078V15.8691C28.6078 16.6966 28.7225 17.4099 28.952 17.9994C29.1862 18.5899 29.5079 19.0789 29.9171 19.4619C30.3228 19.8444 30.7995 20.1286 31.3495 20.3173C31.9018 20.4993 32.4713 20.5959 33.087 20.5959C34.9002 20.5959 36.2065 20.2057 36.986 19.427C37.7707 18.6466 38.1658 17.542 38.1658 16.0955V0H43.5167V15.8957Z" fill="black"/>
<path fill-rule="evenodd" clip-rule="evenodd" d="M53.4437 24.7764H48.0112V0.0375824H66.5081V4.34426H53.4437V10.2939H64.8782V14.4874H53.4437V24.7764Z" fill="black"/>
<path fill-rule="evenodd" clip-rule="evenodd" d="M75.1087 24.7764H69.6768V0.0375824H88.1736V4.34426H75.1087V10.2939H86.5437V14.4874H75.1087V24.7764Z" fill="black"/>
<path fill-rule="evenodd" clip-rule="evenodd" d="M92.6202 24.7764H88.6538L94.3104 0.0375824H98.2828L92.6202 24.7764Z" fill="black"/>
<path fill-rule="evenodd" clip-rule="evenodd" d="M99.9275 0.0266571H112.574V0.960816H107.523L113.425 10.4473L120.418 0.960816H115.94V0.0266571H125.54V0.960816H121.771L114.15 11.4381L122.762 23.9579H127V24.8904H114.039V23.9579H118.125L111.896 14.5763L104.878 23.9579H109.561V24.8904H99.7637V23.9579H103.495L111.144 13.6166L102.941 0.960816H99.9275V0.0266571Z" fill="black"/>
</svg>
