<svg width="28" height="28" viewBox="0 0 28 28" fill="none" xmlns="http://www.w3.org/2000/svg">
<rect width="28" height="28" rx="14" fill="#F3F3F3"/>
<g clip-path="url(#clip0_1710_924)">
<path d="M14.0023 11.1699C12.4123 11.1699 11.1298 12.4323 11.1298 13.9975C11.1298 15.5627 12.4123 16.8251 14.0023 16.8251C15.5923 16.8251 16.8748 15.5627 16.8748 13.9975C16.8748 12.4323 15.5923 11.1699 14.0023 11.1699ZM14.0023 15.8358C12.9748 15.8358 12.1348 15.0114 12.1348 13.9975C12.1348 12.9836 12.9723 12.1592 14.0023 12.1592C15.0323 12.1592 15.8698 12.9836 15.8698 13.9975C15.8698 15.0114 15.0298 15.8358 14.0023 15.8358ZM17.6623 11.0542C17.6623 11.4209 17.3623 11.7138 16.9923 11.7138C16.6198 11.7138 16.3223 11.4184 16.3223 11.0542C16.3223 10.69 16.6223 10.3947 16.9923 10.3947C17.3623 10.3947 17.6623 10.69 17.6623 11.0542ZM19.5648 11.7236C19.5223 10.8401 19.3173 10.0575 18.6598 9.41277C18.0048 8.76801 17.2098 8.56621 16.3123 8.52191C15.3873 8.47023 12.6148 8.47023 11.6898 8.52191C10.7948 8.56375 9.99982 8.76555 9.34232 9.41031C8.68482 10.0551 8.48232 10.8377 8.43732 11.7211C8.38482 12.6317 8.38482 15.3609 8.43732 16.2714C8.47982 17.1549 8.68482 17.9375 9.34232 18.5822C9.99982 19.227 10.7923 19.4288 11.6898 19.4731C12.6148 19.5248 15.3873 19.5248 16.3123 19.4731C17.2098 19.4312 18.0048 19.2295 18.6598 18.5822C19.3148 17.9375 19.5198 17.1549 19.5648 16.2714C19.6173 15.3609 19.6173 12.6341 19.5648 11.7236ZM18.3698 17.2484C18.1748 17.7307 17.7973 18.1023 17.3048 18.2968C16.5673 18.5847 14.8173 18.5182 14.0023 18.5182C13.1873 18.5182 11.4348 18.5822 10.6998 18.2968C10.2098 18.1048 9.83232 17.7332 9.63482 17.2484C9.34232 16.5224 9.40982 14.7998 9.40982 13.9975C9.40982 13.1952 9.34482 11.4701 9.63482 10.7466C9.82982 10.2643 10.2073 9.89266 10.6998 9.69824C11.4373 9.41031 13.1873 9.47676 14.0023 9.47676C14.8173 9.47676 16.5698 9.41277 17.3048 9.69824C17.7948 9.8902 18.1723 10.2618 18.3698 10.7466C18.6623 11.4726 18.5948 13.1952 18.5948 13.9975C18.5948 14.7998 18.6623 16.5249 18.3698 17.2484Z" fill="black"/>
</g>
<defs>
<clipPath id="clip0_1710_924">
<rect width="11.2" height="12.6" fill="white" transform="translate(8.3999 7.69995)"/>
</clipPath>
</defs>
</svg>
