<svg width="25" height="25" viewBox="0 0 25 25" fill="none" xmlns="http://www.w3.org/2000/svg">
<g clip-path="url(#clip0_444_1361)">
<path d="M24.0175 7.63428C22.7471 4.63805 20.3619 2.25288 17.3657 0.982527C15.8243 0.330541 14.1874 0 12.5 0C10.8126 0 9.17568 0.330541 7.63428 0.982527C4.63805 2.25288 2.25288 4.63805 0.982527 7.63428C0.330541 9.17568 0 10.8126 0 12.5C0 14.1874 0.330541 15.8243 0.982527 17.3657C2.25288 20.3619 4.63805 22.7471 7.63428 24.0175C9.17568 24.6695 10.8127 25 12.5 25C14.1873 25 15.8243 24.6695 17.3657 24.0175C20.3619 22.7471 22.7471 20.3619 24.0175 17.3657C24.6695 15.8243 25 14.1873 25 12.5C25 10.8127 24.6695 9.17568 24.0175 7.63428ZM23.849 11.9315H19.7705C19.7335 10.477 19.5539 9.06427 19.2352 7.72415C18.9499 6.52453 18.5629 5.42245 18.0821 4.43765C18.6678 4.25693 19.2437 4.04565 19.8073 3.80469C22.1501 5.77669 23.6878 8.67604 23.849 11.9315ZM13.0685 1.18657C14.2714 1.39672 15.4134 2.27118 16.366 3.71338C15.2817 3.95015 14.1778 4.08636 13.0685 4.12027V1.18657ZM11.9315 1.18657V4.12051C10.8222 4.0866 9.71835 3.95039 8.63404 3.71362C9.58664 2.27118 10.7288 1.39672 11.9315 1.18657ZM8.48935 4.84718C9.62196 5.08795 10.7741 5.22546 11.9315 5.25802V11.9315H6.36668C6.43849 9.24078 7.0231 6.72463 8.03554 4.74414C8.18609 4.78028 8.33736 4.81462 8.48935 4.84718ZM11.9315 13.0688V19.7423C10.7741 19.7749 9.62196 19.9124 8.48935 20.1532C8.33776 20.1857 8.18649 20.2201 8.03554 20.2562C7.0231 18.2757 6.43897 15.7596 6.36668 13.0688H11.9315ZM11.9315 20.8798V23.8138C10.7286 23.6036 9.58664 22.7292 8.63404 21.287C9.71833 21.05 10.8222 20.9136 11.9315 20.8795V20.8798ZM13.0685 23.8138V20.8795C14.1778 20.9134 15.2817 21.0496 16.366 21.2864C15.4134 22.7288 14.2712 23.6033 13.0685 23.8134V23.8138ZM16.5106 20.1532C15.378 19.9124 14.2259 19.7749 13.0685 19.7423V13.0685H18.6333C18.5615 15.7592 17.9769 18.2754 16.9645 20.2559C16.8139 20.2197 16.6626 20.1854 16.5106 20.1528V20.1532ZM13.0685 11.9315V5.25802C14.2259 5.22546 15.378 5.08795 16.5106 4.84718C16.6622 4.81462 16.8135 4.78028 16.9645 4.74414C17.9769 6.72463 18.561 9.24078 18.6333 11.9315H13.0685ZM18.7419 3.00886C18.344 3.15973 17.9381 3.29584 17.5243 3.41719C17.1423 2.79209 16.7261 2.24697 16.2759 1.78183C17.1447 2.08899 17.9728 2.50105 18.7419 3.00886ZM8.72415 1.78183C8.27513 2.24545 7.85902 2.79057 7.47583 3.41719C7.06247 3.296 6.65657 3.15989 6.25814 3.00886C7.02718 2.50107 7.8553 2.08902 8.72415 1.78183ZM5.19268 3.80433C5.75631 4.04529 6.33217 4.25657 6.9179 4.43729C6.43705 5.42209 6.05014 6.52417 5.76484 7.72379C5.44615 9.06415 5.26663 10.4763 5.22954 11.9312H1.15103C1.31223 8.67604 2.84993 5.77669 5.19268 3.80469V3.80433ZM1.15103 13.0685H5.22954C5.26663 14.523 5.44615 15.9357 5.76484 17.2759C6.05014 18.4755 6.43705 19.5775 6.9179 20.5623C6.33217 20.7431 5.75631 20.9543 5.19268 21.1953C2.84993 19.2233 1.31223 16.324 1.15103 13.0685ZM6.25814 21.9911C6.6561 21.8403 7.06199 21.7042 7.47583 21.5828C7.85767 22.2079 8.27378 22.753 8.72415 23.2182C7.8553 22.911 7.02718 22.4989 6.25814 21.9911ZM16.2759 23.2182C16.7249 22.7545 17.141 22.2094 17.5243 21.5828C17.9376 21.7041 18.3434 21.8402 18.7419 21.9911C17.9728 22.4989 17.1447 22.911 16.2759 23.2182ZM19.8073 21.1957C19.2437 20.9547 18.6678 20.7434 18.0821 20.5627C18.5629 19.5779 18.9499 18.4758 19.2352 17.2762C19.5539 15.9359 19.7335 14.5237 19.7705 13.0688H23.849C23.6878 16.324 22.1501 19.2233 19.8073 21.1953V21.1957Z" fill="#1A1A1A"/>
</g>
<defs>
<clipPath id="clip0_444_1361">
<rect width="25" height="25" fill="white"/>
</clipPath>
</defs>
</svg>
