<svg width="25" height="25" viewBox="0 0 25 25" fill="none" xmlns="http://www.w3.org/2000/svg">
<path d="M23.9512 12.5C23.9512 18.8531 18.8116 24 12.4756 24C6.13965 24 1 18.8531 1 12.5C1 6.14688 6.13965 1 12.4756 1C18.8116 1 23.9512 6.14688 23.9512 12.5Z" stroke="black" stroke-width="2"/>
<path fill-rule="evenodd" clip-rule="evenodd" d="M7.091 10.4622H9.30155V18.1813H7.091V10.4622ZM8.13993 9.49665H8.12392C7.32373 9.49665 6.80493 8.90657 6.80493 8.15932C6.80493 7.3968 7.33906 6.81836 8.15526 6.81836C8.9708 6.81836 9.47226 7.39535 9.48826 8.15714C9.48826 8.90438 8.9708 9.49665 8.13993 9.49665ZM18.1464 18.182H15.6398V14.1868C15.6398 13.1412 15.2477 12.4281 14.3855 12.4281C13.726 12.4281 13.3592 12.9091 13.1885 13.374C13.1245 13.5399 13.1345 13.772 13.1345 14.0049V18.182H10.6512C10.6512 18.182 10.6832 11.1054 10.6512 10.4622H13.1345V11.6736C13.2812 11.1439 14.0747 10.388 15.341 10.388C16.9121 10.388 18.1464 11.499 18.1464 13.8892V18.182Z" fill="black"/>
</svg>
